<svg version="1.1" xmlns="http://www.w3.org/2000/svg" viewBox="0 0 1128 726.0000000000001" width="1128" height="726.0000000000001">
  <!-- svg-source:excalidraw -->
  
  <defs>
    <style class="style-fonts">
      @font-face {
        font-family: "Virgil";
        src: url("https://excalidraw.com/Virgil.woff2");
      }
      @font-face {
        font-family: "Cascadia";
        src: url("https://excalidraw.com/Cascadia.woff2");
      }
      @font-face {
        font-family: "Assistant";
        src: url("https://excalidraw.com/Assistant-Regular.woff2");
      }
    </style>
    
  </defs>
  <rect x="0" y="0" width="1128" height="726.0000000000001" fill="#ffffff"></rect><g stroke-linecap="round" transform="translate(486 141) rotate(0 90.5 77.5)"><path d="M68.3 1.88 C79.23 -1.79, 93.41 -0.81, 105.53 1.1 C117.64 3, 130.88 7.6, 140.98 13.29 C151.07 18.99, 159.74 26.37, 166.09 35.27 C172.43 44.17, 177.1 56.22, 179.05 66.67 C180.99 77.12, 181.02 87.81, 177.78 97.96 C174.53 108.11, 167.33 119.54, 159.58 127.59 C151.82 135.64, 142.2 141.85, 131.23 146.26 C120.26 150.67, 106.01 153.38, 93.74 154.04 C81.47 154.71, 69.07 153.94, 57.63 150.28 C46.19 146.61, 33.86 139.54, 25.1 132.06 C16.35 124.58, 9.36 115.25, 5.13 105.4 C0.9 95.55, -1.01 83.43, -0.26 72.93 C0.49 62.44, 3.71 51.9, 9.63 42.42 C15.55 32.93, 24.78 22.81, 35.25 16.03 C45.73 9.26, 65.07 3.93, 72.48 1.77 C79.89 -0.4, 79.14 1.66, 79.7 3.03 M48.55 7.99 C58.28 2.58, 74.61 0.6, 86.96 -0.07 C99.32 -0.73, 111.39 0.3, 122.67 4 C133.96 7.71, 146.11 14.4, 154.69 22.18 C163.28 29.96, 169.83 40.91, 174.18 50.71 C178.54 60.51, 181.47 70.4, 180.83 80.96 C180.2 91.52, 175.98 104.53, 170.37 114.07 C164.75 123.61, 156.57 131.83, 147.15 138.2 C137.72 144.58, 125.51 149.48, 113.82 152.32 C102.13 155.16, 88.93 156.98, 77 155.26 C65.06 153.54, 52.84 148.03, 42.2 141.99 C31.56 135.95, 19.91 127.54, 13.15 119 C6.39 110.46, 3.3 101.19, 1.63 90.75 C-0.04 80.32, 0.18 66.74, 3.13 56.38 C6.09 46.01, 11.59 36.46, 19.36 28.54 C27.12 20.62, 44.74 11.87, 49.71 8.86 C54.68 5.85, 48.64 9.19, 49.19 10.5" stroke="#1e1e1e" stroke-width="2" fill="none"></path></g><g transform="translate(529.4401706532035 193.69922445804258) rotate(0 47.06666564941406 25)"><text x="47.06666564941406" y="0" font-family="Virgil, Segoe UI Emoji" font-size="20px" fill="#1e1e1e" text-anchor="middle" style="white-space: pre;" direction="ltr" dominant-baseline="text-before-edge">ci file </text><text x="47.06666564941406" y="25" font-family="Virgil, Segoe UI Emoji" font-size="20px" fill="#1e1e1e" text-anchor="middle" style="white-space: pre;" direction="ltr" dominant-baseline="text-before-edge">generator</text></g><g stroke-linecap="round" transform="translate(937 126) rotate(0 90.5 77.5)"><path d="M115.93 2.66 C127.28 4.43, 139.52 11.6, 148.99 18.69 C158.45 25.78, 167.2 35.76, 172.69 45.2 C178.19 54.64, 181.63 64.92, 181.95 75.36 C182.28 85.79, 179.62 97.88, 174.66 107.81 C169.7 117.73, 161.24 127.89, 152.2 134.9 C143.17 141.92, 131.93 146.55, 120.44 149.91 C108.96 153.28, 95.54 156, 83.31 155.1 C71.08 154.2, 58.05 149.8, 47.05 144.51 C36.05 139.21, 24.6 131.43, 17.32 123.35 C10.03 115.27, 6.02 106.12, 3.34 96.02 C0.67 85.91, -0.99 73.24, 1.27 62.73 C3.53 52.22, 9.8 41.45, 16.92 32.94 C24.04 24.42, 33.53 17, 43.99 11.65 C54.45 6.29, 65.63 1.53, 79.68 0.81 C93.74 0.08, 119.01 5.5, 128.31 7.31 C137.62 9.12, 136.39 10.5, 135.52 11.69 M130.28 6.29 C141.25 9.73, 151.28 19.75, 159.28 27.65 C167.29 35.56, 175.06 43.67, 178.34 53.69 C181.61 63.72, 180.85 77.39, 178.96 87.78 C177.07 98.16, 173.14 107.05, 166.98 116 C160.82 124.94, 151.83 135.12, 142.02 141.44 C132.2 147.77, 120.05 152.18, 108.08 153.97 C96.11 155.76, 82.32 154.56, 70.18 152.19 C58.04 149.81, 45.04 145.67, 35.24 139.72 C25.45 133.76, 17.3 125.9, 11.41 116.45 C5.52 107, 1.18 93.7, -0.09 83.01 C-1.37 72.32, -0.15 62.23, 3.77 52.32 C7.69 42.41, 15.01 31.35, 23.41 23.53 C31.81 15.71, 42.77 9.44, 54.19 5.39 C65.6 1.34, 79.58 -1.16, 91.91 -0.76 C104.24 -0.36, 122.06 6.04, 128.17 7.79 C134.28 9.54, 129.24 8.91, 128.58 9.75" stroke="#1e1e1e" stroke-width="2" fill="none"></path></g><g transform="translate(973.9401706532035 191.19922445804258) rotate(0 53.56666564941406 12.5)"><text x="53.56666564941406" y="0" font-family="Virgil, Segoe UI Emoji" font-size="20px" fill="#1e1e1e" text-anchor="middle" style="white-space: pre;" direction="ltr" dominant-baseline="text-before-edge">GH actions</text></g><g stroke-linecap="round" transform="translate(888 217) rotate(0 39.5 37.5)"><path d="M18.75 0 C27.2 -1.92, 37.8 -1.31, 60.25 0 M18.75 0 C34.09 -0.31, 50.52 -0.86, 60.25 0 M60.25 0 C73.58 -1.69, 79.42 5.42, 79 18.75 M60.25 0 C74.82 -1.48, 80.86 5.77, 79 18.75 M79 18.75 C79.46 30.78, 78.07 42.22, 79 56.25 M79 18.75 C78.09 28.53, 79.6 39.48, 79 56.25 M79 56.25 C77.33 69.17, 71.81 73.02, 60.25 75 M79 56.25 C79.99 66.56, 72.24 75.28, 60.25 75 M60.25 75 C46.4 73.88, 35.07 76.68, 18.75 75 M60.25 75 C50.44 75.3, 40.88 75.23, 18.75 75 M18.75 75 C5.84 74.48, 1.46 67.81, 0 56.25 M18.75 75 C7.38 73.03, -0.86 69.55, 0 56.25 M0 56.25 C-0.17 46.6, -0.9 37.11, 0 18.75 M0 56.25 C-0.2 41.26, -0.73 27.54, 0 18.75 M0 18.75 C1.01 5.36, 8.13 0.94, 18.75 0 M0 18.75 C-1.16 5.48, 4.79 -1.55, 18.75 0" stroke="#1e1e1e" stroke-width="2" fill="none"></path></g><g stroke-linecap="round" transform="translate(900 222) rotate(0 39.5 37.5)"><path d="M18.75 0 C31.14 2.65, 40.72 3.57, 60.25 0 C71.61 -2.63, 76.92 3.98, 79 18.75 C76.59 29.7, 77.9 35.6, 79 56.25 C80.54 65.32, 71.95 75.44, 60.25 75 C46.08 72.98, 36.44 78.02, 18.75 75 C3.72 75.51, 0.31 67.74, 0 56.25 C-0.54 43.06, 2.83 30.06, 0 18.75 C1.77 3.17, 4.9 1.25, 18.75 0" stroke="none" stroke-width="0" fill="#ffc9c9"></path><path d="M18.75 0 C32.14 1.41, 43.94 -0.09, 60.25 0 M18.75 0 C28.23 0.66, 36.64 0.12, 60.25 0 M60.25 0 C71.52 -1.04, 80.86 6.22, 79 18.75 M60.25 0 C72.61 -0.4, 79.37 5.5, 79 18.75 M79 18.75 C77.11 28.32, 80.45 38.57, 79 56.25 M79 18.75 C79.14 30.53, 78.89 41.05, 79 56.25 M79 56.25 C78.3 68.19, 73.77 74.46, 60.25 75 M79 56.25 C80.32 68.27, 72.93 76.51, 60.25 75 M60.25 75 C50.7 73.52, 36.6 73.76, 18.75 75 M60.25 75 C44.57 74.82, 28.98 74.95, 18.75 75 M18.75 75 C7.93 73.49, 1.84 66.96, 0 56.25 M18.75 75 C5.25 77.23, -1.05 69.06, 0 56.25 M0 56.25 C-0.26 46.42, 1.3 38.85, 0 18.75 M0 56.25 C-0.6 41.81, 0.21 27.16, 0 18.75 M0 18.75 C0.83 4.56, 6.67 -0.83, 18.75 0 M0 18.75 C2.07 4.77, 8.11 -0.48, 18.75 0" stroke="#1e1e1e" stroke-width="2" fill="none"></path></g><g transform="translate(912.1416664123535 247) rotate(0 27.358333587646484 12.5)"><text x="27.358333587646484" y="0" font-family="Virgil, Segoe UI Emoji" font-size="20px" fill="#1e1e1e" text-anchor="middle" style="white-space: pre;" direction="ltr" dominant-baseline="text-before-edge">ci file</text></g><g transform="translate(19 10) rotate(0 545.183349609375 37.5)"><text x="0" y="0" font-family="Virgil, Segoe UI Emoji" font-size="20px" fill="#1e1e1e" text-anchor="start" style="white-space: pre;" direction="ltr" dominant-baseline="text-before-edge">Como usuario, quiero generar todos los archivos necesarios para mi ci vendor para incorporar ci a mi proyecto</text><text x="0" y="25" font-family="Virgil, Segoe UI Emoji" font-size="20px" fill="#1e1e1e" text-anchor="start" style="white-space: pre;" direction="ltr" dominant-baseline="text-before-edge">Como usuario, quiero decidir bajo que eventos si y no desencadenar las ejecuciones de cada stage</text><text x="0" y="50" font-family="Virgil, Segoe UI Emoji" font-size="20px" fill="#1e1e1e" text-anchor="start" style="white-space: pre;" direction="ltr" dominant-baseline="text-before-edge">Como usuario, quiero decidir que pasos si y no incluir para mi pipeline</text></g><g stroke-linecap="round" transform="translate(412.5 391.5) rotate(0 131.5 77.5)"><path d="M131.52 0.17 C146.42 -1.06, 163.81 1.42, 178.41 4.69 C193.02 7.95, 207.44 13.36, 219.13 19.78 C230.81 26.2, 241.36 34.89, 248.53 43.2 C255.7 51.5, 260.42 60.42, 262.16 69.59 C263.91 78.76, 263.21 89.19, 258.99 98.22 C254.77 107.24, 246.57 116.11, 236.84 123.73 C227.1 131.36, 213.9 139.14, 200.57 143.97 C187.25 148.8, 172.34 151.15, 156.9 152.7 C141.47 154.25, 123.83 154.88, 107.95 153.27 C92.08 151.66, 75.13 147.8, 61.66 143.04 C48.19 138.27, 36.57 132.14, 27.12 124.7 C17.67 117.26, 9.33 107.4, 4.97 98.37 C0.62 89.33, -0.33 79.6, 0.97 70.49 C2.28 61.37, 5.93 52.18, 12.81 43.68 C19.69 35.18, 30.29 25.74, 42.25 19.48 C54.21 13.22, 68.8 9.46, 84.59 6.14 C100.38 2.82, 127.44 0.31, 136.99 -0.45 C146.55 -1.21, 142.2 0.1, 141.94 1.57 M171.04 4.56 C186.23 5.7, 200.73 10.47, 212.96 15.99 C225.19 21.52, 236.4 29.7, 244.42 37.72 C252.45 45.74, 258.67 54.88, 261.1 64.12 C263.54 73.36, 262.33 83.64, 259.05 93.15 C255.76 102.66, 249.85 113.49, 241.38 121.18 C232.91 128.88, 220.82 134.15, 208.22 139.33 C195.62 144.51, 181.21 149.92, 165.77 152.26 C150.34 154.61, 131.69 154.37, 115.62 153.41 C99.55 152.46, 83.36 150.51, 69.37 146.52 C55.38 142.54, 41.76 136.66, 31.67 129.51 C21.58 122.36, 13.94 112.72, 8.83 103.64 C3.73 94.56, 0.62 84.22, 1.02 75.04 C1.42 65.86, 5.55 57.22, 11.23 48.58 C16.9 39.93, 24.22 30.16, 35.09 23.16 C45.96 16.16, 61.83 10.62, 76.45 6.57 C91.06 2.53, 107.13 -0.76, 122.78 -1.12 C138.43 -1.49, 162.74 3.6, 170.32 4.41 C177.9 5.22, 169.08 2.88, 168.28 3.73" stroke="#1e1e1e" stroke-width="2" fill="none"></path></g><g transform="translate(480.60712544926196 456.69922445804264) rotate(0 63.40833282470703 12.5)"><text x="63.40833282470703" y="0" font-family="Virgil, Segoe UI Emoji" font-size="20px" fill="#1e1e1e" text-anchor="middle" style="white-space: pre;" direction="ltr" dominant-baseline="text-before-edge">Configuration</text></g><g stroke-linecap="round" transform="translate(345 512) rotate(0 105.5 25)"><path d="M145.32 1.59 C159.27 2.33, 173.93 5.21, 184.05 7.87 C194.16 10.52, 201.65 13.9, 206.03 17.5 C210.4 21.1, 212.63 25.63, 210.29 29.47 C207.96 33.3, 201.08 37.62, 192.01 40.54 C182.93 43.46, 169.25 45.54, 155.84 46.98 C142.43 48.41, 126.88 48.8, 111.54 49.13 C96.21 49.46, 77.93 50.09, 63.83 48.96 C49.72 47.84, 36.89 45.14, 26.92 42.37 C16.94 39.6, 8.14 35.91, 3.97 32.33 C-0.2 28.74, -0.72 24.61, 1.91 20.87 C4.54 17.14, 10.93 12.89, 19.76 9.92 C28.59 6.96, 41.35 4.66, 54.89 3.07 C68.43 1.48, 84.21 0.31, 100.98 0.38 C117.74 0.44, 145.09 2.63, 155.49 3.46 C165.88 4.29, 164.15 5.09, 163.34 5.37 M155.66 2.28 C169.11 3.63, 180.38 8.23, 189.28 11.25 C198.19 14.26, 206.16 17.04, 209.08 20.37 C211.99 23.7, 210.66 27.71, 206.76 31.22 C202.86 34.73, 195.55 38.54, 185.67 41.43 C175.78 44.31, 161.64 47.22, 147.47 48.54 C133.31 49.86, 116.1 49.67, 100.68 49.33 C85.26 48.98, 68.46 48.27, 54.95 46.47 C41.44 44.67, 28.65 41.4, 19.61 38.54 C10.57 35.69, 3.49 32.84, 0.72 29.33 C-2.05 25.82, -1.04 20.96, 2.99 17.48 C7.02 14.01, 14.56 11.2, 24.92 8.49 C35.27 5.78, 50.93 2.65, 65.14 1.22 C79.36 -0.21, 95.34 -0.53, 110.19 -0.09 C125.05 0.35, 146.89 3.2, 154.26 3.87 C161.64 4.54, 155.15 3.49, 154.44 3.93" stroke="none" stroke-width="0" fill="#ffc9c9"></path><path d="M64.15 1.54 C76.83 -0.23, 95.74 -0.3, 110.89 -0.2 C126.05 -0.1, 141.72 0.32, 155.07 2.12 C168.42 3.92, 181.93 7.42, 191 10.61 C200.06 13.8, 206.91 17.78, 209.45 21.27 C212 24.76, 210.29 28.28, 206.28 31.55 C202.27 34.82, 195.45 38.08, 185.42 40.9 C175.39 43.72, 160.3 47.01, 146.11 48.48 C131.93 49.96, 115.25 49.85, 100.3 49.76 C85.35 49.66, 69.82 49.51, 56.41 47.94 C43 46.36, 28.83 43.41, 19.83 40.32 C10.84 37.22, 5.17 32.97, 2.44 29.35 C-0.29 25.74, -0.48 22.24, 3.45 18.61 C7.38 14.98, 13.44 10.63, 26.01 7.56 C38.58 4.48, 67.34 1.34, 78.87 0.15 C90.4 -1.05, 94.72 -0.13, 95.19 0.39 M102.73 0.77 C116.94 0.42, 133.75 1.72, 147.36 3.08 C160.96 4.44, 174.27 6.56, 184.36 8.91 C194.44 11.25, 203.81 13.83, 207.89 17.14 C211.97 20.45, 211.9 25.17, 208.84 28.74 C205.77 32.31, 198.47 35.57, 189.47 38.55 C180.48 41.53, 168.45 44.7, 154.86 46.63 C141.27 48.55, 123.18 49.82, 107.94 50.11 C92.71 50.4, 77.46 49.95, 63.48 48.37 C49.5 46.78, 34.19 43.55, 24.06 40.59 C13.93 37.63, 6.36 33.86, 2.69 30.59 C-0.97 27.32, -0.83 24.62, 2.07 20.98 C4.98 17.33, 10.85 11.69, 20.11 8.7 C29.38 5.71, 44.08 4.46, 57.66 3.02 C71.25 1.58, 94.05 0.67, 101.61 0.04 C109.18 -0.58, 102.96 -0.91, 103.04 -0.73" stroke="#1e1e1e" stroke-width="2" fill="none"></path></g><g transform="translate(389.50856817246574 524.3223304703363) rotate(0 60.891666412353516 12.5)"><text x="60.891666412353516" y="0" font-family="Virgil, Segoe UI Emoji" font-size="20px" fill="#1e1e1e" text-anchor="middle" style="white-space: pre;" direction="ltr" dominant-baseline="text-before-edge">Environments</text></g><g stroke-linecap="round" transform="translate(546.5 488.5) rotate(0 131.5 107.5)"><path d="M166.15 4.17 C180.51 5.62, 195.21 13.02, 207.42 20.24 C219.63 27.46, 230.71 37.3, 239.39 47.49 C248.07 57.68, 255.57 69.63, 259.51 81.37 C263.45 93.12, 264.68 105.75, 263.03 117.95 C261.38 130.16, 256.01 143.64, 249.6 154.61 C243.18 165.59, 234.97 175.28, 224.55 183.82 C214.12 192.36, 200.64 200.74, 187.04 205.84 C173.44 210.95, 158.02 213.53, 142.94 214.46 C127.86 215.39, 111.17 214.53, 96.56 211.44 C81.95 208.35, 67.51 203.06, 55.28 195.92 C43.06 188.77, 31.78 178.79, 23.2 168.57 C14.62 158.35, 7.7 146.43, 3.79 134.58 C-0.13 122.73, -1.63 109.6, -0.29 97.49 C1.06 85.37, 5.22 72.95, 11.85 61.9 C18.48 50.85, 28.83 39.81, 39.49 31.18 C50.16 22.56, 62.31 15.21, 75.84 10.14 C89.36 5.08, 102.73 1.12, 120.63 0.82 C138.53 0.51, 170.3 5.5, 183.23 8.33 C196.16 11.16, 199.06 15.98, 198.22 17.81 M150.55 0.72 C164.92 0.49, 179.24 6.39, 192.49 12.14 C205.74 17.89, 219.98 25.8, 230.06 35.24 C240.14 44.68, 247.44 57.32, 253 68.78 C258.56 80.24, 263 91.79, 263.42 104.01 C263.83 116.23, 260.16 130.43, 255.49 142.11 C250.83 153.79, 244.57 164.73, 235.44 174.1 C226.31 183.46, 213.36 191.94, 200.71 198.31 C188.06 204.68, 174.2 209.51, 159.55 212.32 C144.9 215.13, 127.71 216.88, 112.82 215.17 C97.93 213.46, 83.19 208.21, 70.19 202.05 C57.19 195.89, 44.76 187.35, 34.82 178.21 C24.89 169.07, 16.58 158.16, 10.57 147.22 C4.55 136.28, -0.43 124.67, -1.25 112.56 C-2.06 100.46, 0.84 86.53, 5.69 74.58 C10.53 62.63, 18.32 50.44, 27.82 40.88 C37.32 31.32, 50.06 23.54, 62.68 17.2 C75.3 10.87, 88.86 5.77, 103.53 2.89 C118.19 0, 142.81 0.03, 150.65 -0.1 C158.48 -0.22, 150.96 -0.06, 150.53 2.13" stroke="#1e1e1e" stroke-width="2" fill="none"></path></g><g stroke-linecap="round" transform="translate(573.5 506) rotate(0 105.5 42.5)"><path d="M87.67 1.57 C100.74 -0.11, 116.16 -0.56, 129.83 0.68 C143.51 1.92, 158.32 5.31, 169.73 9 C181.14 12.68, 191.57 17.85, 198.31 22.79 C205.04 27.73, 209.11 32.91, 210.14 38.64 C211.17 44.37, 209.36 51.64, 204.48 57.16 C199.6 62.68, 190.75 67.55, 180.84 71.76 C170.93 75.98, 158.22 80.31, 145.03 82.45 C131.84 84.6, 115.96 84.93, 101.7 84.6 C87.44 84.28, 72.28 82.98, 59.48 80.49 C46.67 78, 34.24 74.06, 24.86 69.67 C15.48 65.28, 7.2 59.71, 3.21 54.17 C-0.79 48.63, -1.06 42.1, 0.89 36.41 C2.83 30.72, 7.38 24.82, 14.89 20.03 C22.4 15.24, 32.88 10.78, 45.94 7.65 C59.01 4.53, 84.47 2.27, 93.28 1.28 C102.09 0.3, 98.53 1.1, 98.81 1.76 M146.36 3.2 C159.66 4.29, 172.19 7.52, 181.85 11.51 C191.51 15.5, 199.41 21.4, 204.33 27.15 C209.25 32.89, 212.33 39.91, 211.35 45.97 C210.37 52.02, 205.05 58.52, 198.45 63.47 C191.86 68.42, 182.91 72.18, 171.76 75.66 C160.61 79.14, 145.71 83.14, 131.55 84.36 C117.39 85.59, 100.89 84.29, 86.8 82.99 C72.71 81.7, 58.93 79.73, 46.99 76.59 C35.04 73.45, 22.87 68.7, 15.14 64.15 C7.41 59.61, 2.54 54.8, 0.59 49.31 C-1.36 43.82, -0.64 36.95, 3.44 31.23 C7.52 25.5, 15.71 19.29, 25.09 14.96 C34.47 10.63, 46.76 7.93, 59.7 5.24 C72.65 2.56, 88.29 -0.7, 102.77 -1.13 C117.25 -1.56, 139.83 1.62, 146.57 2.66 C153.3 3.71, 144.2 4.34, 143.19 5.12" stroke="none" stroke-width="0" fill="#ffc9c9"></path><path d="M96.59 0.94 C109.77 -0.3, 125.7 -0.29, 139.16 1.44 C152.63 3.18, 166.79 7.26, 177.37 11.32 C187.94 15.39, 196.94 20.49, 202.62 25.82 C208.3 31.16, 211.82 37.45, 211.45 43.34 C211.08 49.23, 206.39 56, 200.41 61.14 C194.43 66.28, 186.24 70.55, 175.59 74.16 C164.94 77.78, 150.35 80.9, 136.52 82.81 C122.69 84.73, 106.99 86.29, 92.61 85.65 C78.22 85.01, 62.55 82.06, 50.21 78.96 C37.86 75.87, 26.46 71.66, 18.53 67.06 C10.61 62.46, 5.12 57.15, 2.65 51.39 C0.17 45.62, 0.69 38.25, 3.69 32.47 C6.69 26.69, 12.33 21.09, 20.62 16.68 C28.91 12.27, 39.76 8.67, 53.44 6.01 C67.12 3.35, 93.29 1.62, 102.7 0.72 C112.11 -0.19, 109.86 -0.06, 109.88 0.57 M84.69 1.52 C97.45 0.12, 112.49 0.92, 126.18 2.2 C139.87 3.48, 154.96 6.01, 166.85 9.23 C178.75 12.44, 190.34 16.57, 197.56 21.52 C204.78 26.46, 208.95 33.02, 210.16 38.92 C211.36 44.82, 209.28 51.42, 204.8 56.94 C200.32 62.47, 192.52 67.79, 183.26 72.07 C174 76.35, 162.01 80.46, 149.22 82.62 C136.44 84.78, 121.15 85.39, 106.55 85.04 C91.95 84.69, 74.88 82.87, 61.63 80.53 C48.37 78.19, 36.36 75.04, 27.02 70.99 C17.69 66.94, 10.04 61.65, 5.62 56.24 C1.19 50.83, -1.03 44.17, 0.46 38.53 C1.94 32.89, 7.35 27.66, 14.54 22.41 C21.72 17.16, 32.19 10.61, 43.57 7.04 C54.95 3.48, 76.17 2.09, 82.83 1.02 C89.48 -0.05, 82.85 0.17, 83.5 0.63" stroke="#1e1e1e" stroke-width="2" fill="none"></path></g><g transform="translate(638.0335696983446 523.4479617995717) rotate(0 40.86666488647461 25)"><text x="40.86666488647461" y="0" font-family="Virgil, Segoe UI Emoji" font-size="20px" fill="#1e1e1e" text-anchor="middle" style="white-space: pre;" direction="ltr" dominant-baseline="text-before-edge">Project </text><text x="40.86666488647461" y="25" font-family="Virgil, Segoe UI Emoji" font-size="20px" fill="#1e1e1e" text-anchor="middle" style="white-space: pre;" direction="ltr" dominant-baseline="text-before-edge">building</text></g><g stroke-linecap="round" transform="translate(589.5 607) rotate(0 105.5 42.5)"><path d="M74.11 2.7 C86.52 0.42, 104.04 0.01, 118.18 0.57 C132.31 1.13, 146.72 3.07, 158.93 6.07 C171.14 9.06, 183.03 13.76, 191.43 18.57 C199.83 23.37, 206.39 29.33, 209.32 34.92 C212.24 40.5, 212.15 46.42, 208.98 52.07 C205.81 57.72, 198.82 64.39, 190.29 68.83 C181.77 73.27, 170.46 75.9, 157.84 78.69 C145.22 81.49, 128.87 84.95, 114.56 85.59 C100.25 86.22, 85.54 84.61, 71.99 82.5 C58.44 80.4, 43.76 76.84, 33.24 72.95 C22.73 69.06, 14.42 64.46, 8.9 59.15 C3.38 53.84, 0.09 46.89, 0.13 41.08 C0.17 35.27, 3.3 29.35, 9.12 24.28 C14.94 19.21, 23.85 14.39, 35.05 10.67 C46.26 6.94, 68.8 3.39, 76.35 1.93 C83.89 0.46, 79.77 1.23, 80.33 1.87 M126.74 -0.13 C140.37 0.54, 156.21 4.75, 167.71 8.25 C179.2 11.76, 188.39 16.09, 195.7 20.91 C203.01 25.72, 209.99 31.51, 211.59 37.13 C213.18 42.75, 209.7 48.85, 205.29 54.61 C200.88 60.37, 194.67 67.08, 185.15 71.7 C175.64 76.32, 161.49 80.23, 148.21 82.32 C134.92 84.41, 119.61 84.17, 105.45 84.22 C91.28 84.28, 76.31 84.81, 63.2 82.64 C50.09 80.47, 36.38 75.61, 26.77 71.21 C17.16 66.8, 9.7 61.9, 5.56 56.21 C1.43 50.53, 0.54 42.91, 1.95 37.09 C3.36 31.27, 7.13 26.21, 14.04 21.31 C20.95 16.4, 31.76 11.03, 43.42 7.66 C55.09 4.3, 69.96 2.03, 84.04 1.12 C98.13 0.21, 120.9 2.25, 127.94 2.22 C134.99 2.18, 126.99 0.32, 126.32 0.93" stroke="none" stroke-width="0" fill="#ffc9c9"></path><path d="M119.24 0.99 C132.98 1.04, 148.19 3.08, 160.4 5.95 C172.61 8.83, 184.37 13.48, 192.51 18.25 C200.65 23.03, 206.81 28.93, 209.23 34.61 C211.65 40.3, 210.42 46.77, 207.03 52.35 C203.65 57.94, 197.66 63.57, 188.92 68.15 C180.18 72.73, 167.24 77, 154.62 79.84 C142 82.67, 127.25 84.57, 113.21 85.18 C99.17 85.79, 83.86 85.35, 70.37 83.5 C56.89 81.65, 42.59 78.09, 32.32 74.08 C22.04 70.06, 13.97 64.88, 8.72 59.39 C3.47 53.9, 0.45 46.85, 0.81 41.11 C1.18 35.37, 4.82 30.06, 10.9 24.93 C16.98 19.81, 26.63 14.28, 37.28 10.37 C47.94 6.47, 60.36 3.04, 74.84 1.49 C89.32 -0.05, 115.01 1.06, 124.14 1.12 C133.27 1.18, 129.74 1.08, 129.62 1.86 M92.83 -1.06 C106.13 -2.64, 123.79 -1.01, 137.36 0.79 C150.93 2.58, 163.65 5.57, 174.24 9.72 C184.83 13.86, 194.88 20.2, 200.89 25.65 C206.91 31.1, 210.01 36.86, 210.32 42.43 C210.64 48.01, 208.25 53.72, 202.78 59.09 C197.3 64.47, 187.89 70.92, 177.47 74.67 C167.05 78.42, 153.62 79.97, 140.26 81.59 C126.89 83.21, 111.86 84.51, 97.29 84.38 C82.71 84.25, 65.64 83.49, 52.81 80.8 C39.97 78.11, 28.74 73.15, 20.27 68.24 C11.81 63.33, 5.29 57.21, 2.03 51.35 C-1.23 45.49, -2.39 38.47, 0.73 33.06 C3.84 27.66, 12.43 23.62, 20.72 18.92 C29.01 14.23, 38.59 8.1, 50.46 4.88 C62.32 1.67, 84.57 0.49, 91.92 -0.34 C99.27 -1.18, 94.06 -0.95, 94.57 -0.1" stroke="#1e1e1e" stroke-width="2" fill="none"></path></g><g transform="translate(643.8252338218798 624.4479617995717) rotate(0 51.07500076293945 25)"><text x="51.07500076293945" y="0" font-family="Virgil, Segoe UI Emoji" font-size="20px" fill="#1e1e1e" text-anchor="middle" style="white-space: pre;" direction="ltr" dominant-baseline="text-before-edge">Project </text><text x="51.07500076293945" y="25" font-family="Virgil, Segoe UI Emoji" font-size="20px" fill="#1e1e1e" text-anchor="middle" style="white-space: pre;" direction="ltr" dominant-baseline="text-before-edge">deployment</text></g><g mask="url(#mask-AAIQjtPDh0nGeiLEHwR10)" stroke-linecap="round"><g transform="translate(618.5740488404382 288.2087227997156) rotate(0 -31.761626212187878 45.013676151441814)"><path d="M-0.77 0.16 C-11.4 15.22, -52.95 74.38, -63.32 89.33 M1.02 -0.81 C-9.79 14.49, -53.42 75.18, -64.16 90.49" stroke="#1e1e1e" stroke-width="2" fill="none"></path></g><g transform="translate(618.5740488404382 288.2087227997156) rotate(0 -31.761626212187878 45.013676151441814)"><path d="M-57.51 66.39 C-59.71 74.84, -63.38 83.6, -64.16 90.49 M-57.51 66.39 C-59.71 73.04, -62.12 79.98, -64.16 90.49" stroke="#1e1e1e" stroke-width="2" fill="none"></path></g><g transform="translate(618.5740488404382 288.2087227997156) rotate(0 -31.761626212187878 45.013676151441814)"><path d="M-43.57 76.3 C-50.39 81.31, -58.78 86.72, -64.16 90.49 M-43.57 76.3 C-49.73 80.19, -56.12 84.29, -64.16 90.49" stroke="#1e1e1e" stroke-width="2" fill="none"></path></g></g><mask id="mask-AAIQjtPDh0nGeiLEHwR10"><rect x="0" y="0" fill="#fff" width="782.097301264814" height="478.2360751025992"></rect><rect x="560.7624233911896" y="320.7223989511574" fill="#000" width="52.099998474121094" height="25" opacity="1"></rect></mask><g transform="translate(560.7624233911897 320.7223989511574) rotate(0 26.24447894148534 12.329812286570672)"><text x="26.049999237060547" y="0" font-family="Virgil, Segoe UI Emoji" font-size="20px" fill="#1e1e1e" text-anchor="middle" style="white-space: pre;" direction="ltr" dominant-baseline="text-before-edge">USES</text></g><g stroke-linecap="round" transform="translate(239.5 133.5) rotate(0 90.5 77.5)"><path d="M76.67 1.08 C87.95 -1.68, 102.22 -0.1, 114.14 2.75 C126.06 5.59, 138.61 11.61, 148.17 18.17 C157.74 24.74, 165.93 32.75, 171.54 42.14 C177.16 51.54, 181.37 63.83, 181.87 74.54 C182.37 85.26, 179.15 96.65, 174.53 106.42 C169.91 116.18, 162.8 125.77, 154.15 133.15 C145.51 140.54, 134.05 147.12, 122.67 150.73 C111.29 154.34, 98.2 155.51, 85.89 154.8 C73.58 154.1, 59.84 151.5, 48.8 146.51 C37.76 141.52, 27.26 132.98, 19.64 124.87 C12.02 116.75, 6.26 107.99, 3.06 97.83 C-0.14 87.68, -1.65 74.46, 0.45 63.94 C2.56 53.43, 8.72 43.38, 15.69 34.75 C22.66 26.11, 31.56 17.85, 42.27 12.13 C52.98 6.41, 73.44 2.05, 79.97 0.44 C86.5 -1.17, 81.35 1.06, 81.47 2.46 M46.11 9.66 C55.64 3.86, 70.96 1.89, 83.5 0.83 C96.05 -0.24, 109.64 0.08, 121.4 3.27 C133.17 6.47, 145.31 12.53, 154.11 19.99 C162.91 27.44, 169.9 38.13, 174.19 48 C178.48 57.88, 180.3 68.55, 179.86 79.24 C179.43 89.93, 176.62 102.36, 171.56 112.15 C166.51 121.93, 158.88 131.23, 149.55 137.95 C140.21 144.66, 127.39 149.75, 115.56 152.43 C103.74 155.11, 90.55 155.58, 78.58 154.03 C66.61 152.47, 54.4 148.38, 43.74 143.1 C33.08 137.82, 21.88 130.81, 14.61 122.35 C7.33 113.88, 2.19 102.69, 0.09 92.3 C-2 81.91, -1.23 70.23, 2.02 59.99 C5.28 49.76, 12.13 39.52, 19.64 30.9 C27.14 22.28, 42.09 11.67, 47.06 8.3 C52.02 4.92, 48.88 9.41, 49.43 10.66" stroke="#1e1e1e" stroke-width="2" fill="none"></path></g><g transform="translate(290.14850271497096 186.19922445804258) rotate(0 39.858333587646484 25)"><text x="39.858333587646484" y="0" font-family="Virgil, Segoe UI Emoji" font-size="20px" fill="#1e1e1e" text-anchor="middle" style="white-space: pre;" direction="ltr" dominant-baseline="text-before-edge">pipeline </text><text x="39.858333587646484" y="25" font-family="Virgil, Segoe UI Emoji" font-size="20px" fill="#1e1e1e" text-anchor="middle" style="white-space: pre;" direction="ltr" dominant-baseline="text-before-edge">specifier</text></g><g stroke-linecap="round"><g transform="translate(417 224) rotate(0 35 -4)"><path d="M-0.41 0.96 C11.17 -0.38, 57.06 -6.67, 68.8 -8.3 M1.57 0.42 C13.57 -0.72, 59.6 -5.52, 70.89 -6.92" stroke="#1e1e1e" stroke-width="2" fill="none"></path></g><g transform="translate(417 224) rotate(0 35 -4)"><path d="M48.5 4.2 C55.53 -0.4, 58.82 -1, 70.89 -6.92 M48.5 4.2 C53.12 1.33, 59.3 -1.69, 70.89 -6.92" stroke="#1e1e1e" stroke-width="2" fill="none"></path></g><g transform="translate(417 224) rotate(0 35 -4)"><path d="M46.59 -12.79 C54.04 -13.29, 57.8 -9.79, 70.89 -6.92 M46.59 -12.79 C51.53 -11.77, 58.14 -10.9, 70.89 -6.92" stroke="#1e1e1e" stroke-width="2" fill="none"></path></g></g><mask></mask><g stroke-linecap="round"><g transform="translate(666 220) rotate(0 108 13.5)"><path d="M-0.37 -1.19 C35.42 3.55, 178.9 22.59, 215.12 27.28 M1.64 0.8 C37.77 5.25, 181.53 20.72, 217.37 25.31" stroke="#1e1e1e" stroke-width="2" fill="none"></path></g><g transform="translate(666 220) rotate(0 108 13.5)"><path d="M193.05 31.08 C199.24 27.77, 209.8 28.92, 217.37 25.31 M193.05 31.08 C200.63 28.51, 207.79 28.5, 217.37 25.31" stroke="#1e1e1e" stroke-width="2" fill="none"></path></g><g transform="translate(666 220) rotate(0 108 13.5)"><path d="M195.03 14.1 C200.4 16.44, 210.3 23.26, 217.37 25.31 M195.03 14.1 C202.1 16.62, 208.67 21.71, 217.37 25.31" stroke="#1e1e1e" stroke-width="2" fill="none"></path></g></g><mask></mask><g stroke-linecap="round" transform="translate(10 117) rotate(0 104.5 299.50000000000006)"><path d="M32 0 C60.86 1.02, 93.73 -1.75, 177 0 C195.63 -3.25, 212.22 8.97, 209 32 C211.45 150.87, 209.13 272.16, 209 567 C206.98 586.05, 194.94 599.92, 177 599 C144.94 600.86, 109.8 598.04, 32 599 C7.49 599.48, -2.84 589.68, 0 567 C1.95 401.75, 3.32 235.89, 0 32 C1.16 8.7, 9.21 3, 32 0" stroke="none" stroke-width="0" fill="#ffc9c9"></path><path d="M32 0 C72.44 -1.55, 113.27 1.28, 177 0 M32 0 C66.45 0.89, 101.43 1.76, 177 0 M177 0 C198.55 -1.22, 208.36 12.37, 209 32 M177 0 C200.59 0.98, 210.61 9.31, 209 32 M209 32 C209.83 230.16, 209.59 430.09, 209 567 M209 32 C208.47 160.22, 208.88 288.69, 209 567 M209 567 C209.78 587.82, 196.57 600.29, 177 599 M209 567 C207.62 586.12, 198.12 598.33, 177 599 M177 599 C148.22 600.02, 116.81 601.2, 32 599 M177 599 C130.99 598.96, 86.81 599.33, 32 599 M32 599 C11.64 597.84, 0.58 590.07, 0 567 M32 599 C11.17 598.08, -2.05 589.94, 0 567 M0 567 C1.49 400.72, 1.59 232.82, 0 32 M0 567 C-0.48 458.3, -0.97 349.88, 0 32 M0 32 C-1.26 9.32, 12 -0.69, 32 0 M0 32 C-1.24 11.59, 12.85 -0.52, 32 0" stroke="#1e1e1e" stroke-width="2" fill="none"></path></g><g transform="translate(43 165) rotate(0 51.875 12.5)"><text x="0" y="0" font-family="Virgil, Segoe UI Emoji" font-size="20px" fill="#1e1e1e" text-anchor="start" style="white-space: pre;" direction="ltr" dominant-baseline="text-before-edge">USECASES</text></g><g transform="translate(18 235) rotate(0 88.84166717529297 12.5)"><text x="0" y="0" font-family="Virgil, Segoe UI Emoji" font-size="20px" fill="#1e1e1e" text-anchor="start" style="white-space: pre;" direction="ltr" dominant-baseline="text-before-edge">Ci files generation</text></g><g transform="translate(24 361) rotate(0 82.93333435058594 12.5)"><text x="0" y="0" font-family="Virgil, Segoe UI Emoji" font-size="20px" fill="#1e1e1e" text-anchor="start" style="white-space: pre;" direction="ltr" dominant-baseline="text-before-edge">Specify ci pipeline</text></g></svg>